PathFileType	4	(X/Y/Z)	1_Data\scaling.trc
DataRate	CameraRate	NumFrames	NumMarkers	Units	OrigDataRate	OrigDataStartFrame	OrigNumFrames
120.000000	120.000000	4	71	mm	120.000000	174	697
Frame#	Time	Sternum			Neck			RShoulder			LShoulder			Xiphoid			Thoracic			RAsis			LAsis			RPsis			LPsis			RElbow			RElbowMedial			RShoulderAnterior			RShoulderPosterior			RWrist			RRadius			RUlna			LElbow			LElbowMedial			LShoulderAnterior			LShoulderPosterior			LWrist			LUlna			LRadius			LThighSuperior			LThighInferior			LThighLateral			LKneeLateral			LKneeMedial			LPatella			LShankSuperior			LShankInferior			LShankLateral			LAnkleLateral			LAnkleMedial			RThighSuperior			RThighInferior			RThighLateral			RKneeLateral			RPatella			RShankSuperior			RShankInferior			RShankLateral			RAnkleLateral			RankleMedial			RHeel			RToe			RMidfootMedial			RMidfootLateral			RHindfoot			RMidfootSuperior			RToeMedial			RToeLateral			LHeel			LToe			LMidfootMedial			LMidfootLateral			LHindfoot			LMidfootSuperior			LToeMedial			LToeLateral			RKneeMedial			Lumbar			Oglobal			Sacral			Xglobal			Yglobal			Zglobal			*68			*69			*70			
		X1	Y1	Z1	X2	Y2	Z2	X3	Y3	Z3	X4	Y4	Z4	X5	Y5	Z5	X6	Y6	Z6	X7	Y7	Z7	X8	Y8	Z8	X9	Y9	Z9	X10	Y10	Z10	X11	Y11	Z11	X12	Y12	Z12	X13	Y13	Z13	X14	Y14	Z14	X15	Y15	Z15	X16	Y16	Z16	X17	Y17	Z17	X18	Y18	Z18	X19	Y19	Z19	X20	Y20	Z20	X21	Y21	Z21	X22	Y22	Z22	X23	Y23	Z23	X24	Y24	Z24	X25	Y25	Z25	X26	Y26	Z26	X27	Y27	Z27	X28	Y28	Z28	X29	Y29	Z29	X30	Y30	Z30	X31	Y31	Z31	X32	Y32	Z32	X33	Y33	Z33	X34	Y34	Z34	X35	Y35	Z35	X36	Y36	Z36	X37	Y37	Z37	X38	Y38	Z38	X39	Y39	Z39	X40	Y40	Z40	X41	Y41	Z41	X42	Y42	Z42	X43	Y43	Z43	X44	Y44	Z44	X45	Y45	Z45	X46	Y46	Z46	X47	Y47	Z47	X48	Y48	Z48	X49	Y49	Z49	X50	Y50	Z50	X51	Y51	Z51	X52	Y52	Z52	X53	Y53	Z53	X54	Y54	Z54	X55	Y55	Z55	X56	Y56	Z56	X57	Y57	Z57	X58	Y58	Z58	X59	Y59	Z59	X60	Y60	Z60	X61	Y61	Z61	X62	Y62	Z62	X63	Y63	Z63	X64	Y64	Z64	X65	Y65	Z65	X66	Y66	Z66	X67	Y67	Z67	X68	Y68	Z68	X69	Y69	Z69	X70	Y70	Z70	X71	Y71	Z71	

175	1.45	537.2567749023438	1458.098388671875	-469.6575622558593	385.0498352050781	1573.139526367188	-452.4737548828124	436.0755920410156	1555.589721679688	-300.1735839843749	410.4372253417969	1554.517944335938	-599.6636352539061	563.7858276367188	1301.988159179688	-456.8797607421874	294.8454895019531	1352.916870117188	-449.4707946777343	491.3233947753906	1039.202514648438	-321.7080383300781	503.4832153320312	1044.7294921875	-603.2907714843749	305.6035766601562	1068.153198242188	-411.4621276855468	304.1165161132812	1067.934204101562	-513.7586669921874	517.19140625	1307.75244140625	-88.12069702148429	546.3968505859375	1243.358276367188	-157.4251251220702	489.4429016113281	1498.031860351562	-308.8125915527343	376.8638305664062	1503.843627929688	-281.3458251953124	785.3184204101562	1331.524047851562	-78.54261016845695	798.3632202148438	1307.252563476562	-125.8031845092773	785.5942993164062	1303.56103515625	-41.89021301269523	533.2408447265625	1300.561645507812	-795.6905517578124	544.0421142578125	1241.235229492188	-723.8557739257811	472.0674438476562	1506.507202148438	-617.5209350585936	361.1743469238281	1496.271118164062	-630.0228881835936	801.2846069335938	1326.731079101562	-779.4839477539061	795.3338012695312	1290.034301757812	-809.5241699218749	808.3112182617188	1306.790649414062	-735.8566284179686	444.3651123046875	874.3646850585938	-657.5870361328125	469.0713806152344	643.355224609375	-639.5399780273438	544.0804443359375	747.4188842773438	-586.542236328125	473.8040771484375	558.4034423828125	-642.620849609375	466.6838989257812	565.2122802734375	-500.1578369140624	551.9470825195312	554.5107421875	-577.3701171875	465.1376037597656	406.2846069335938	-661.2603149414062	429.5652770996094	205.2578125	-643.168701171875	487.8940734863281	294.6431579589844	-602.195068359375	410.7072448730469	124.5069961547852	-643.54052734375	439.5274658203125	125.2243041992188	-557.9067993164062	427.2281188964844	846.3306274414062	-285.8354492187499	442.1348266601562	610.2295532226562	-309.8363647460937	530.9981079101562	764.025390625	-339.0615234374999	434.561279296875	545.2574462890625	-309.0137329101562	527.9271240234375	539.8297729492188	-349.8731994628906	421.4602355957031	448.6062927246094	-303.4977722167969	414.0103149414062	194.3750457763672	-335.7664489746094	480.5157165527344	318.5992736816406	-367.6274108886719	404.8649291992188	119.9936904907227	-339.4835815429688	436.7785949707031	137.4777069091797	-425.837158203125	331.7855529785156	79.35687255859378	-394.85986328125	646.109375	62.76065826416018	-351.6454467773438	552.8423461914062	49.33898925781253	-414.5685424804688	540.9288940429688	43.44975662231447	-295.613525390625	486.2683410644531	43.70927810668947	-309.7668762207031	514.3216552734375	110.8008728027344	-364.507568359375	597.778076171875	50.17362976074221	-403.9782104492188	588.7017822265625	48.41919326782229	-301.0440063476562	341.3323669433594	83.35977172851567	-591.001220703125	648.7407836914062	73.87049102783207	-642.7618408203125	555.4603271484375	50.70520782470707	-578.4691772460938	541.7583618164062	47.15297317504887	-694.89453125	487.6288146972656	46.45825576782231	-680.0347900390625	523.4314575195312	112.5557250976563	-625.4911499023438	597.1607666015625	51.46357345581058	-587	586.0798950195312	56.85789489746098	-690.1329956054688	477.6780700683594	543.1766967773438	-444.8791198730468	317.4143371582031	1170.117065429688	-458.0546874999999	0	0	0	304.8600463867188	1068.043701171875	-462.6104125976562	200	0	0	0	1.224646799147353e-14	-200	0	200	1.224646799147353e-14	nan	nan	nan	nan	nan	nan	nan	nan	nan	
176	1.458333333333333	537.267578125	1458.074340820312	-469.6181640624999	385.0475769042969	1573.123657226562	-452.4486999511718	436.0731811523438	1555.58203125	-300.1656188964843	410.3423156738281	1554.558227539062	-599.5648193359374	563.7621459960938	1301.990356445312	-456.8519592285156	294.8364868164062	1352.903686523438	-449.4505004882812	491.2797241210938	1039.175170898438	-321.6721496582031	503.4719543457031	1044.729370117188	-603.2651367187499	305.5700073242188	1068.148681640625	-411.4913330078124	304.105224609375	1067.947875976562	-513.7904663085936	517.1378784179688	1307.70751953125	-88.04737854003898	546.3599243164062	1243.343139648438	-157.4310760498046	489.427490234375	1498.036376953125	-308.7869873046874	376.8609619140625	1503.777221679688	-281.5186767578124	785.2612915039062	1331.482299804688	-78.59987640380851	798.3203125	1307.1572265625	-125.9191055297851	785.538818359375	1303.506713867188	-41.91813659667961	533.2760620117188	1300.466918945312	-795.5787963867186	544.1141357421875	1241.130737304688	-723.7827758789061	472.0989685058594	1506.509521484375	-617.5031738281249	361.0320129394531	1496.221557617188	-629.9832763671874	801.3790893554688	1326.587280273438	-779.3569335937499	795.3814697265625	1289.870361328125	-809.4248046874999	808.3716430664062	1306.6943359375	-735.8154296874999	444.3700561523438	874.3648681640625	-657.56396484375	469.1485290527344	643.2931518554688	-639.5379028320312	544.08154296875	747.4143676757812	-586.5144653320312	473.8021240234375	558.397705078125	-642.5948486328125	466.6935119628906	565.1906127929688	-500.1651000976562	551.8955688476562	554.5738525390625	-577.2265014648438	465.1340026855469	406.2334594726563	-661.2277221679688	429.5595092773438	205.2800445556641	-643.1637573242188	487.8621826171875	294.6356201171876	-602.196533203125	410.6869201660156	124.5121841430664	-643.5152587890625	439.5138549804688	125.1700057983399	-557.9406127929688	427.1929016113281	846.3148193359375	-285.8560791015624	442.1021728515625	610.2115478515625	-309.8646850585937	530.9862060546875	764.0289306640625	-339.0004882812499	434.5326843261719	545.257080078125	-309.0191650390624	527.8960571289062	539.8172607421875	-349.9064941406249	421.4595947265625	448.5894775390625	-303.5123901367188	413.9973754882812	194.3695220947266	-335.7802124023438	480.4983825683594	318.6019897460938	-367.6040954589844	404.8735961914062	119.9902648925781	-339.4871826171875	436.7785034179688	137.4774627685547	-425.8373718261719	331.7099304199219	79.57334899902347	-394.8825378417969	646.1041259765625	62.76184463500979	-351.6309204101562	552.4542236328125	49.01564407348636	-414.0846557617188	541.0287475585938	43.34229660034182	-295.6976928710938	486.275390625	43.69581985473635	-309.7974548339844	514.9392700195312	110.2754058837891	-365.4622192382812	597.766357421875	50.16971588134768	-403.9328918457031	588.8277587890625	48.10444259643557	-301.4849243164062	341.3313903808594	83.36009216308598	-591.0014038085938	648.7359619140625	73.87092590332036	-642.7655639648438	555.4624633789062	50.68648147583011	-578.4633178710938	541.798095703125	47.18309402465825	-694.8995971679688	487.5556030273438	46.44313049316411	-679.727783203125	523.432373046875	112.5486679077149	-625.483642578125	597.1724853515625	51.48125457763675	-587.0075073242188	586.0626220703125	56.86807632446293	-690.1515502929688	477.6507568359375	543.1611938476562	-444.9154357910156	317.3980712890625	1170.119262695312	-458.0311889648437	0	0	0	304.8376159667969	1068.04833984375	-462.6408996582031	200	0	0	0	1.224646799147353e-14	-200	0	200	1.224646799147353e-14	nan	nan	nan	nan	nan	nan	nan	nan	nan	
177	1.466666666666667	537.2363891601562	1458.086059570312	-469.5801391601561	385.0357360839844	1573.17431640625	-452.4197998046874	436.05078125	1555.554443359375	-300.1290283203124	410.3521118164062	1554.556640625	-599.5438232421874	563.7498779296875	1301.972412109375	-456.8673095703124	294.8082580566406	1352.84326171875	-449.5191650390624	491.2335205078125	1039.17626953125	-321.6578979492187	503.5032043457031	1044.734741210938	-603.2471923828124	305.5685424804688	1068.148681640625	-411.4981994628906	304.1428833007812	1067.960571289062	-513.8374633789061	517.0651245117188	1307.685546875	-88.06874084472648	546.3054809570312	1243.2734375	-157.4787597656249	489.4075622558594	1497.994018554688	-308.7773437499999	376.8595275878906	1503.779296875	-281.5148315429686	785.1849365234375	1331.432861328125	-78.60759735107413	798.2938842773438	1307.108032226562	-125.9928359985351	785.5078735351562	1303.487670898438	-41.97352981567375	533.19921875	1300.456420898438	-795.2315063476561	544.1341552734375	1241.080688476562	-723.7283325195311	472.0921325683594	1506.486083984375	-617.4552612304686	360.9506225585938	1495.8994140625	-629.8947143554686	801.4491577148438	1326.421752929688	-779.1670532226561	795.6008911132812	1289.979248046875	-809.6817016601561	808.6845703125	1306.26806640625	-736.0452880859374	444.3896484375	874.3873291015625	-657.5677490234375	469.1919250488281	643.247802734375	-639.5653686523438	544.072998046875	747.4266357421875	-586.51220703125	473.7999572753906	558.401123046875	-642.5767822265625	466.7096252441406	565.1986694335938	-500.1647949218749	551.9570922851562	554.5125732421875	-577.2904052734375	465.1294860839844	406.2831726074219	-661.2218017578125	429.5405883789062	205.1237487792969	-643.1589965820312	487.8881225585938	294.6327819824219	-602.1751708984375	410.6824340820312	124.5136184692383	-643.5198364257812	439.5157775878906	125.1848297119141	-557.9209594726562	427.1629333496094	846.3394165039062	-285.8510131835937	442.0024719238281	610.2108764648438	-309.8700561523437	530.9708862304688	764.0178833007812	-338.9580688476562	434.5020751953125	545.2581176757812	-309.0162048339843	527.859375	539.8129272460938	-349.8872375488281	421.4309997558594	448.56103515625	-303.514892578125	413.9955139160156	194.3557739257813	-335.77490234375	480.4942016601562	318.6328430175781	-367.5868530273438	404.86572265625	119.9966583251953	-339.4783325195312	436.7756652832031	137.4679718017578	-425.8457641601562	331.7231750488281	79.57746124267581	-394.904541015625	646.08837890625	62.75892257690432	-351.6343383789062	552.4086303710938	48.95536804199222	-413.999267578125	541.02294921875	43.30209732055666	-295.7146301269531	486.2940368652344	43.68507385253908	-309.8147583007812	515.0191650390625	110.1935806274414	-365.6311950683594	597.7737426757812	50.20892333984377	-403.9539184570312	588.7252807617188	48.4112129211426	-301.08544921875	341.3224792480469	83.36778259277348	-590.9841918945312	648.7314453125	73.81069946289067	-642.7866821289062	555.4607543945312	50.70538711547855	-578.4678955078125	541.7840576171875	47.18308639526371	-694.907470703125	487.5420532226562	46.41176223754887	-679.6895141601562	523.3851318359375	112.6272735595704	-625.5020751953125	597.1629638671875	51.48639297485355	-586.9739379882812	586.0621948242188	56.84574890136723	-690.1417236328125	477.61767578125	543.1539916992188	-444.8992919921874	317.3938598632812	1170.128662109375	-458.0623474121093	0	0	0	304.855712890625	1068.0546875	-462.6678466796874	200	0	0	0	1.224646799147353e-14	-200	0	200	1.224646799147353e-14	nan	nan	nan	nan	nan	nan	nan	nan	nan	
178	1.475	537.2319946289062	1458.0537109375	-469.5683593749999	385.0638122558594	1573.11962890625	-452.4442138671874	436.0436096191406	1555.556274414062	-300.1240844726561	410.3719787597656	1554.557495117188	-599.5355224609374	563.6815185546875	1301.933715820312	-456.7746276855468	294.8060302734375	1352.903076171875	-449.4548950195312	491.220458984375	1039.168701171875	-321.6252441406249	503.5570068359375	1044.704223632812	-603.2362060546874	305.5398559570312	1068.146606445312	-411.4638366699218	304.1453552246094	1067.93701171875	-513.8532104492186	517.0252075195312	1307.639526367188	-88.02491760253898	546.2160034179688	1243.244018554688	-157.4257202148437	489.4070739746094	1497.99267578125	-308.7780151367186	376.8341979980469	1503.779052734375	-281.5091552734374	785.1378784179688	1331.424072265625	-78.64847564697257	798.2424926757812	1307.093383789062	-126.0196533203124	785.4513549804688	1303.469360351562	-42.02096176147453	533.2479858398438	1300.409423828125	-795.1640624999999	544.1555786132812	1241.009887695312	-723.6578979492186	472.06591796875	1506.495727539062	-617.3904418945311	360.8909606933594	1495.843383789062	-629.8145141601561	801.4928588867188	1326.282958984375	-779.0159301757811	795.6434326171875	1289.85546875	-809.5753784179686	808.6538696289062	1306.040283203125	-736.3024902343749	444.4175720214844	874.3825073242188	-657.5629272460938	469.2126159667969	643.267822265625	-639.54296875	544.0619506835938	747.4103393554688	-586.4607543945312	473.8020935058594	558.3876342773438	-642.5191650390625	466.6358032226562	565.239013671875	-500.1185302734374	551.915283203125	554.5650024414062	-577.2030639648438	464.3419494628906	405.6333007812501	-659.8770751953125	429.5914611816406	205.246826171875	-643.169921875	487.8947448730469	294.6400756835938	-602.1492919921875	410.7221984863281	124.5017929077149	-643.5361328125	439.511474609375	125.18505859375	-557.911865234375	427.1296691894531	846.3064575195312	-285.8756103515624	442.0502624511719	610.2149047851562	-309.8584594726562	530.9542846679688	764.0289306640625	-338.9515075683593	434.501708984375	545.2590942382812	-308.9833374023437	527.851318359375	539.806396484375	-349.8419799804687	421.4047241210938	448.5823974609375	-303.4932861328125	413.9962158203125	194.3656616210938	-335.7790222167969	480.4856262207031	318.6226501464844	-367.5909118652344	404.8846130371094	119.9847030639649	-339.4673461914062	436.6903076171875	137.4459838867188	-425.7686767578125	331.7228698730469	79.52053833007815	-394.8717956542969	646.1119384765625	62.79072189331057	-351.5903625488281	552.8020629882812	49.32106399536136	-414.5324096679688	541.0117797851562	43.34067916870119	-295.6918640136719	486.2777709960938	43.63831329345705	-309.8347473144531	514.3643188476562	110.7404937744141	-364.5884399414062	597.7857666015625	50.09388732910158	-403.9675903320312	588.7166137695312	48.42170715332033	-301.0501708984375	341.4039001464844	83.30249786376957	-591.1141357421875	648.7305297851562	73.87643432617192	-642.7986450195312	555.4639282226562	50.68220138549808	-578.4652709960938	541.76611328125	47.15607833862309	-694.8928833007812	487.5118408203125	46.41405487060551	-679.7029418945312	523.4017944335938	112.6334838867188	-625.5165405273438	597.1702880859375	51.46330261230472	-586.9518432617188	586.0711059570312	56.87789535522465	-690.1370849609375	477.6134033203125	543.1446533203125	-444.8571166992187	317.4148864746094	1170.112426757812	-458.0931396484374	0	0	0	304.8425903320312	1068.041748046875	-462.6585083007812	200	0	0	0	1.224646799147353e-14	-200	0	200	1.224646799147353e-14	nan	nan	nan	nan	nan	nan	nan	nan	nan	
